STARTFONT 2.1
FONT -Monotype-Bookman Old Style-Bold-R-Normal--14-100-100-100-P-74-iso8859-9
SIZE 10 100 100
FONTBOUNDINGBOX 22 16 -3 -3

STARTPROPERTIES 24
FOUNDRY "Monotype"
FAMILY_NAME "Bookman Old Style"
WEIGHT_NAME "Bold"
SLANT "R"
SETWIDTH_NAME "Normal"
ADD_STYLE_NAME ""
PIXEL_SIZE 14
POINT_SIZE 100
RESOLUTION_X 100
RESOLUTION_Y 100
SPACING "P"
AVERAGE_WIDTH 74
CHARSET_REGISTRY "iso8859"
CHARSET_ENCODING "9"
FACE_NAME "Bookman Old Style Bold ISO Latin5"
_DEC_DEVICE_FONTNAMES "PS=bookmanoldstyle-b-lat5"
COPYRIGHT "Copyright (c) 1994 Monotype Typography Ltd."
CAP_HEIGHT 11
X_HEIGHT 8
WEIGHT 10
QUAD_WIDTH 10
DEFAULT_CHAR 160
FONT_DESCENT 4
FONT_ASCENT 13
ENDPROPERTIES

CHARS 191

STARTCHAR space
ENCODING 32
SWIDTH 340 0
DWIDTH 5 0
BBX 0 0 0 0
BITMAP
ENDCHAR

STARTCHAR exclam
ENCODING 33
SWIDTH 360 0
DWIDTH 5 0
BBX 2 10 2 0
BITMAP
C0
C0
C0
C0
C0
C0
00
00
C0
C0
ENDCHAR

STARTCHAR quotedbl
ENCODING 34
SWIDTH 420 0
DWIDTH 6 0
BBX 5 4 0 6
BITMAP
D8
D8
D8
90
ENDCHAR

STARTCHAR numbersign
ENCODING 35
SWIDTH 600 0
DWIDTH 8 0
BBX 8 10 0 0
BITMAP
36
36
36
7F
36
FF
6C
6C
6C
6C
ENDCHAR

STARTCHAR dollar
ENCODING 36
SWIDTH 660 0
DWIDTH 9 0
BBX 7 12 1 -2
BITMAP
10
7C
DE
D6
F0
7C
1E
D6
F6
7C
10
10
ENDCHAR

STARTCHAR percent
ENCODING 37
SWIDTH 940 0
DWIDTH 13 0
BBX 12 10 1 0
BITMAP
7080
D980
D900
DA00
7600
04E0
09B0
19B0
11B0
20E0
ENDCHAR

STARTCHAR ampersand
ENCODING 38
SWIDTH 800 0
DWIDTH 11 0
BBX 11 10 1 0
BITMAP
3800
6C00
6C00
3800
6BC0
CD80
C740
C760
EF60
7DC0
ENDCHAR

STARTCHAR quoteright
ENCODING 39
SWIDTH 320 0
DWIDTH 4 0
BBX 3 5 0 5
BITMAP
60
60
20
40
80
ENDCHAR

STARTCHAR parenleft
ENCODING 40
SWIDTH 320 0
DWIDTH 4 0
BBX 3 13 1 -3
BITMAP
20
60
40
C0
C0
C0
C0
C0
C0
C0
40
60
20
ENDCHAR

STARTCHAR parenright
ENCODING 41
SWIDTH 320 0
DWIDTH 4 0
BBX 3 13 1 -3
BITMAP
80
C0
40
60
60
60
60
60
60
60
40
C0
80
ENDCHAR

STARTCHAR asterisk
ENCODING 42
SWIDTH 460 0
DWIDTH 6 0
BBX 6 6 0 4
BITMAP
50
34
F8
7C
30
48
ENDCHAR

STARTCHAR plus
ENCODING 43
SWIDTH 600 0
DWIDTH 8 0
BBX 7 7 1 1
BITMAP
10
10
10
FE
10
10
10
ENDCHAR

STARTCHAR comma
ENCODING 44
SWIDTH 340 0
DWIDTH 5 0
BBX 3 5 1 -3
BITMAP
60
60
20
40
80
ENDCHAR

STARTCHAR minus
ENCODING 45
SWIDTH 600 0
DWIDTH 8 0
BBX 7 1 1 4
BITMAP
FE
ENDCHAR

STARTCHAR period
ENCODING 46
SWIDTH 340 0
DWIDTH 5 0
BBX 2 2 2 0
BITMAP
C0
C0
ENDCHAR

STARTCHAR slash
ENCODING 47
SWIDTH 600 0
DWIDTH 8 0
BBX 6 13 1 -3
BITMAP
0C
0C
18
18
18
30
30
30
60
60
60
C0
C0
ENDCHAR

STARTCHAR zero
ENCODING 48
SWIDTH 660 0
DWIDTH 9 0
BBX 8 10 1 0
BITMAP
3C
66
C3
C3
C3
C3
C3
C3
66
3C
ENDCHAR

STARTCHAR one
ENCODING 49
SWIDTH 660 0
DWIDTH 9 0
BBX 6 10 2 0
BITMAP
10
F0
30
30
30
30
30
30
30
FC
ENDCHAR

STARTCHAR two
ENCODING 50
SWIDTH 660 0
DWIDTH 9 0
BBX 7 10 1 0
BITMAP
7C
EE
C6
86
0E
1C
38
62
C6
FC
ENDCHAR

STARTCHAR three
ENCODING 51
SWIDTH 660 0
DWIDTH 9 0
BBX 7 10 1 0
BITMAP
7C
EE
C6
06
1C
06
06
C6
EE
7C
ENDCHAR

STARTCHAR four
ENCODING 52
SWIDTH 660 0
DWIDTH 9 0
BBX 9 10 0 0
BITMAP
0600
0E00
1E00
3600
6600
C600
FF80
0600
0600
0600
ENDCHAR

STARTCHAR five
ENCODING 53
SWIDTH 660 0
DWIDTH 9 0
BBX 7 10 1 0
BITMAP
FC
FC
80
F0
3C
0E
06
C6
EE
7C
ENDCHAR

STARTCHAR six
ENCODING 54
SWIDTH 660 0
DWIDTH 9 0
BBX 8 10 1 0
BITMAP
1E
78
60
DC
F6
E3
C3
C3
66
3C
ENDCHAR

STARTCHAR seven
ENCODING 55
SWIDTH 660 0
DWIDTH 9 0
BBX 8 10 1 0
BITMAP
7F
FF
C6
8C
1C
18
38
30
30
30
ENDCHAR

STARTCHAR eight
ENCODING 56
SWIDTH 660 0
DWIDTH 9 0
BBX 8 10 1 0
BITMAP
7E
E7
C3
F3
7E
CF
C3
C3
E7
7E
ENDCHAR

STARTCHAR nine
ENCODING 57
SWIDTH 660 0
DWIDTH 9 0
BBX 8 10 1 0
BITMAP
3C
66
C3
C3
C7
6F
3B
06
1E
78
ENDCHAR

STARTCHAR colon
ENCODING 58
SWIDTH 340 0
DWIDTH 5 0
BBX 2 7 2 0
BITMAP
C0
C0
00
00
00
C0
C0
ENDCHAR

STARTCHAR semicolon
ENCODING 59
SWIDTH 340 0
DWIDTH 5 0
BBX 3 10 0 -3
BITMAP
60
60
00
00
00
60
60
20
40
80
ENDCHAR

STARTCHAR less
ENCODING 60
SWIDTH 600 0
DWIDTH 8 0
BBX 7 8 1 1
BITMAP
02
0E
38
E0
E0
38
0E
02
ENDCHAR

STARTCHAR equal
ENCODING 61
SWIDTH 600 0
DWIDTH 8 0
BBX 7 4 1 3
BITMAP
FE
00
00
FE
ENDCHAR

STARTCHAR greater
ENCODING 62
SWIDTH 600 0
DWIDTH 8 0
BBX 7 8 1 1
BITMAP
80
E0
38
0E
0E
38
E0
80
ENDCHAR

STARTCHAR question
ENCODING 63
SWIDTH 660 0
DWIDTH 9 0
BBX 7 10 1 0
BITMAP
78
EC
C6
06
0C
38
30
00
30
30
ENDCHAR

STARTCHAR at
ENCODING 64
SWIDTH 820 0
DWIDTH 11 0
BBX 12 13 0 -3
BITMAP
0FC0
1020
2010
4290
4D90
8990
9910
9B20
9F60
4990
6020
18C0
0700
ENDCHAR

STARTCHAR A
ENCODING 65
SWIDTH 720 0
DWIDTH 10 0
BBX 10 10 0 0
BITMAP
0C00
0E00
1E00
1F00
3300
3300
3F80
6180
6180
F3C0
ENDCHAR

STARTCHAR B
ENCODING 66
SWIDTH 720 0
DWIDTH 10 0
BBX 9 10 1 0
BITMAP
FF00
6380
6180
6180
7F00
6300
6180
6180
6380
FF00
ENDCHAR

STARTCHAR C
ENCODING 67
SWIDTH 740 0
DWIDTH 10 0
BBX 9 10 1 0
BITMAP
1F00
7380
6180
C000
C000
C000
C000
6180
7380
1F00
ENDCHAR

STARTCHAR D
ENCODING 68
SWIDTH 780 0
DWIDTH 11 0
BBX 10 10 1 0
BITMAP
FE00
6380
6180
60C0
60C0
60C0
60C0
6180
6380
FE00
ENDCHAR

STARTCHAR E
ENCODING 69
SWIDTH 720 0
DWIDTH 10 0
BBX 9 10 1 0
BITMAP
FF00
6380
6180
6400
7C00
6400
6000
6180
6380
FF00
ENDCHAR

STARTCHAR F
ENCODING 70
SWIDTH 680 0
DWIDTH 10 0
BBX 9 10 1 0
BITMAP
FF00
6380
6180
6400
7C00
6400
6000
6000
6000
F000
ENDCHAR

STARTCHAR G
ENCODING 71
SWIDTH 780 0
DWIDTH 11 0
BBX 10 10 1 0
BITMAP
1F00
7380
6180
C000
C000
C3C0
C180
6180
7380
1E80
ENDCHAR

STARTCHAR H
ENCODING 72
SWIDTH 820 0
DWIDTH 11 0
BBX 10 10 1 0
BITMAP
F3C0
6180
6180
6180
7F80
6180
6180
6180
6180
F3C0
ENDCHAR

STARTCHAR I
ENCODING 73
SWIDTH 400 0
DWIDTH 5 0
BBX 4 10 1 0
BITMAP
F0
60
60
60
60
60
60
60
60
F0
ENDCHAR

STARTCHAR J
ENCODING 74
SWIDTH 640 0
DWIDTH 9 0
BBX 8 10 1 0
BITMAP
0F
06
06
06
06
06
46
C6
EE
7C
ENDCHAR

STARTCHAR K
ENCODING 75
SWIDTH 800 0
DWIDTH 11 0
BBX 10 10 1 0
BITMAP
F3C0
6180
6300
6600
6C00
7E00
7600
6300
6380
F3C0
ENDCHAR

STARTCHAR L
ENCODING 76
SWIDTH 640 0
DWIDTH 9 0
BBX 8 10 1 0
BITMAP
F0
60
60
60
60
60
60
63
67
FE
ENDCHAR

STARTCHAR M
ENCODING 77
SWIDTH 940 0
DWIDTH 13 0
BBX 12 10 1 0
BITMAP
F0F0
70E0
59E0
5960
4F60
4E60
4660
4660
4660
E6F0
ENDCHAR

STARTCHAR N
ENCODING 78
SWIDTH 740 0
DWIDTH 11 0
BBX 10 10 1 0
BITMAP
F1C0
7880
5880
4C80
4C80
4680
4680
4380
4380
E180
ENDCHAR

STARTCHAR O
ENCODING 79
SWIDTH 800 0
DWIDTH 11 0
BBX 10 10 1 0
BITMAP
1E00
7380
6180
C0C0
C0C0
C0C0
C0C0
6180
7380
1E00
ENDCHAR

STARTCHAR P
ENCODING 80
SWIDTH 660 0
DWIDTH 9 0
BBX 8 10 1 0
BITMAP
FE
67
63
63
67
7E
60
60
60
F0
ENDCHAR

STARTCHAR Q
ENCODING 81
SWIDTH 800 0
DWIDTH 11 0
BBX 10 13 1 -3
BITMAP
1E00
7380
6180
C0C0
C0C0
C0C0
C0C0
6180
7380
1E00
0C00
0F80
0700
ENDCHAR

STARTCHAR R
ENCODING 82
SWIDTH 780 0
DWIDTH 11 0
BBX 10 10 1 0
BITMAP
FF00
6380
6180
6180
6380
7F00
6C00
6600
6700
F7C0
ENDCHAR

STARTCHAR S
ENCODING 83
SWIDTH 660 0
DWIDTH 8 0
BBX 7 10 1 0
BITMAP
7A
CE
C6
E0
78
3C
0E
C6
E6
BC
ENDCHAR

STARTCHAR T
ENCODING 84
SWIDTH 700 0
DWIDTH 11 0
BBX 10 10 1 0
BITMAP
7F80
EDC0
CCC0
0C00
0C00
0C00
0C00
0C00
0C00
1E00
ENDCHAR

STARTCHAR U
ENCODING 85
SWIDTH 740 0
DWIDTH 11 0
BBX 10 10 1 0
BITMAP
F1C0
6080
6080
6080
6080
6080
6080
6080
3100
1E00
ENDCHAR

STARTCHAR V
ENCODING 86
SWIDTH 720 0
DWIDTH 10 0
BBX 10 10 0 0
BITMAP
F1C0
6080
7180
3100
3100
3B00
1A00
1E00
0C00
0C00
ENDCHAR

STARTCHAR W
ENCODING 87
SWIDTH 940 0
DWIDTH 13 0
BBX 14 10 0 0
BITMAP
F79C
6308
6318
6310
3790
35B0
3DA0
19E0
18C0
18C0
ENDCHAR

STARTCHAR X
ENCODING 88
SWIDTH 780 0
DWIDTH 11 0
BBX 11 10 0 0
BITMAP
F9E0
70C0
3180
1B00
0E00
0E00
1B00
3180
61C0
F3E0
ENDCHAR

STARTCHAR Y
ENCODING 89
SWIDTH 700 0
DWIDTH 9 0
BBX 10 10 0 0
BITMAP
FBC0
7180
3100
3B00
1E00
1E00
0C00
0C00
0C00
1E00
ENDCHAR

STARTCHAR Z
ENCODING 90
SWIDTH 640 0
DWIDTH 9 0
BBX 9 10 0 0
BITMAP
3F00
7300
6700
0E00
1C00
1800
3800
7180
E380
FF00
ENDCHAR

STARTCHAR bracketleft
ENCODING 91
SWIDTH 300 0
DWIDTH 4 0
BBX 3 13 1 -3
BITMAP
E0
C0
C0
C0
C0
C0
C0
C0
C0
C0
C0
C0
E0
ENDCHAR

STARTCHAR backslash
ENCODING 92
SWIDTH 600 0
DWIDTH 8 0
BBX 6 13 1 -3
BITMAP
C0
C0
60
60
60
30
30
30
18
18
18
0C
0C
ENDCHAR

STARTCHAR bracketright
ENCODING 93
SWIDTH 300 0
DWIDTH 4 0
BBX 3 13 1 -3
BITMAP
E0
60
60
60
60
60
60
60
60
60
60
60
E0
ENDCHAR

STARTCHAR asciicircum
ENCODING 94
SWIDTH 600 0
DWIDTH 8 0
BBX 7 6 1 4
BITMAP
10
38
28
6C
44
C6
ENDCHAR

STARTCHAR underscore
ENCODING 95
SWIDTH 500 0
DWIDTH 7 0
BBX 7 1 0 -2
BITMAP
FE
ENDCHAR

STARTCHAR quoteleft
ENCODING 96
SWIDTH 320 0
DWIDTH 4 0
BBX 3 5 1 5
BITMAP
20
40
80
C0
C0
ENDCHAR

STARTCHAR a
ENCODING 97
SWIDTH 580 0
DWIDTH 8 0
BBX 7 7 1 0
BITMAP
78
CC
0C
7C
EC
CC
76
ENDCHAR

STARTCHAR b
ENCODING 98
SWIDTH 600 0
DWIDTH 8 0
BBX 8 10 0 0
BITMAP
20
E0
60
6C
76
63
63
63
76
6C
ENDCHAR

STARTCHAR c
ENCODING 99
SWIDTH 580 0
DWIDTH 8 0
BBX 7 7 1 0
BITMAP
3C
6E
C6
C0
C2
66
3C
ENDCHAR

STARTCHAR d
ENCODING 100
SWIDTH 640 0
DWIDTH 9 0
BBX 8 10 1 0
BITMAP
02
0E
06
36
6E
C6
C6
C6
6E
37
ENDCHAR

STARTCHAR e
ENCODING 101
SWIDTH 580 0
DWIDTH 8 0
BBX 7 7 1 0
BITMAP
3C
46
FE
C0
C2
66
3C
ENDCHAR

STARTCHAR f
ENCODING 102
SWIDTH 380 0
DWIDTH 5 0
BBX 6 10 1 0
BITMAP
38
6C
60
F0
60
60
60
60
60
F0
ENDCHAR

STARTCHAR g
ENCODING 103
SWIDTH 580 0
DWIDTH 8 0
BBX 7 10 1 -3
BITMAP
7A
EC
CC
DC
78
C0
F8
7C
C6
7C
ENDCHAR

STARTCHAR h
ENCODING 104
SWIDTH 680 0
DWIDTH 10 0
BBX 9 10 1 0
BITMAP
2000
E000
6000
6E00
7700
6300
6300
6300
6300
F380
ENDCHAR

STARTCHAR i
ENCODING 105
SWIDTH 360 0
DWIDTH 5 0
BBX 4 10 1 0
BITMAP
60
60
00
20
E0
60
60
60
60
F0
ENDCHAR

STARTCHAR j
ENCODING 106
SWIDTH 340 0
DWIDTH 5 0
BBX 5 13 -1 -3
BITMAP
18
18
00
08
38
18
18
18
18
18
98
D8
70
ENDCHAR

STARTCHAR k
ENCODING 107
SWIDTH 660 0
DWIDTH 9 0
BBX 8 10 1 0
BITMAP
20
E0
60
6F
66
6C
78
6C
66
F7
ENDCHAR

STARTCHAR l
ENCODING 108
SWIDTH 340 0
DWIDTH 5 0
BBX 4 10 1 0
BITMAP
20
E0
60
60
60
60
60
60
60
F0
ENDCHAR

STARTCHAR m
ENCODING 109
SWIDTH 1000 0
DWIDTH 13 0
BBX 12 7 1 0
BITMAP
2CC0
FFE0
6660
6660
6660
6660
F770
ENDCHAR

STARTCHAR n
ENCODING 110
SWIDTH 680 0
DWIDTH 10 0
BBX 9 7 1 0
BITMAP
2E00
F700
6300
6300
6300
6300
F380
ENDCHAR

STARTCHAR o
ENCODING 111
SWIDTH 620 0
DWIDTH 9 0
BBX 8 7 1 0
BITMAP
3C
66
C3
C3
C3
66
3C
ENDCHAR

STARTCHAR p
ENCODING 112
SWIDTH 640 0
DWIDTH 9 0
BBX 8 10 1 -3
BITMAP
2C
F6
63
63
63
76
6C
60
60
F0
ENDCHAR

STARTCHAR q
ENCODING 113
SWIDTH 620 0
DWIDTH 9 0
BBX 8 10 1 -3
BITMAP
34
6F
C6
C6
C6
6E
36
06
06
0F
ENDCHAR

STARTCHAR r
ENCODING 114
SWIDTH 460 0
DWIDTH 6 0
BBX 6 7 1 0
BITMAP
2C
F8
60
60
60
60
F0
ENDCHAR

STARTCHAR s
ENCODING 115
SWIDTH 520 0
DWIDTH 7 0
BBX 6 7 1 0
BITMAP
78
CC
E0
78
1C
CC
78
ENDCHAR

STARTCHAR t
ENCODING 116
SWIDTH 460 0
DWIDTH 6 0
BBX 6 9 1 0
BITMAP
20
60
F8
60
60
60
60
6C
38
ENDCHAR

STARTCHAR u
ENCODING 117
SWIDTH 660 0
DWIDTH 10 0
BBX 9 7 1 0
BITMAP
EF00
6300
6300
6300
6300
6700
3B80
ENDCHAR

STARTCHAR v
ENCODING 118
SWIDTH 600 0
DWIDTH 8 0
BBX 9 7 0 0
BITMAP
F780
6300
6600
3600
3400
1C00
1800
ENDCHAR

STARTCHAR w
ENCODING 119
SWIDTH 800 0
DWIDTH 11 0
BBX 12 7 0 0
BITMAP
F6F0
6660
76C0
36C0
3A80
1B80
1B00
ENDCHAR

STARTCHAR x
ENCODING 120
SWIDTH 600 0
DWIDTH 8 0
BBX 9 7 0 0
BITMAP
F780
6300
3600
1C00
2C00
6600
EF00
ENDCHAR

STARTCHAR y
ENCODING 121
SWIDTH 620 0
DWIDTH 9 0
BBX 9 10 1 -3
BITMAP
F780
6300
6600
3600
3400
1C00
1800
5800
F000
6000
ENDCHAR

STARTCHAR z
ENCODING 122
SWIDTH 560 0
DWIDTH 8 0
BBX 7 7 1 0
BITMAP
7E
C6
8C
18
32
66
FC
ENDCHAR

STARTCHAR braceleft
ENCODING 123
SWIDTH 320 0
DWIDTH 4 0
BBX 5 13 0 -3
BITMAP
18
30
30
60
60
20
C0
20
60
60
30
30
18
ENDCHAR

STARTCHAR bar
ENCODING 124
SWIDTH 600 0
DWIDTH 8 0
BBX 2 14 3 -3
BITMAP
C0
C0
C0
C0
C0
C0
C0
C0
C0
C0
C0
C0
C0
C0
ENDCHAR

STARTCHAR braceright
ENCODING 125
SWIDTH 320 0
DWIDTH 4 0
BBX 5 13 0 -3
BITMAP
C0
60
60
30
30
20
18
20
30
30
60
60
C0
ENDCHAR

STARTCHAR asciitilde
ENCODING 126
SWIDTH 600 0
DWIDTH 8 0
BBX 7 2 1 4
BITMAP
F6
DE
ENDCHAR

STARTCHAR space
ENCODING 160
SWIDTH 340 0
DWIDTH 6 0
BBX 0 0 0 0
BITMAP
ENDCHAR

STARTCHAR exclamdown
ENCODING 161
SWIDTH 360 0
DWIDTH 5 0
BBX 3 10 1 -3
BITMAP
40
E0
40
00
40
40
E0
E0
E0
40
ENDCHAR

STARTCHAR cent
ENCODING 162
SWIDTH 660 0
DWIDTH 9 0
BBX 7 10 1 0
BITMAP
10
10
7C
EC
C4
C0
E6
7C
10
10
ENDCHAR

STARTCHAR sterling
ENCODING 163
SWIDTH 660 0
DWIDTH 9 0
BBX 9 10 0 0
BITMAP
1E00
3F00
3100
3000
FE00
1800
F880
9D80
9F80
F700
ENDCHAR

STARTCHAR currency
ENCODING 164
SWIDTH 600 0
DWIDTH 8 0
BBX 8 8 0 1
BITMAP
81
7E
66
42
42
66
7E
81
ENDCHAR

STARTCHAR yen
ENCODING 165
SWIDTH 660 0
DWIDTH 9 0
BBX 10 10 0 0
BITMAP
FBC0
7180
3180
3B00
1A00
7F80
0C00
7F80
1C00
1E00
ENDCHAR

STARTCHAR brokenbar
ENCODING 166
SWIDTH 600 0
DWIDTH 8 0
BBX 2 14 3 -3
BITMAP
C0
C0
C0
C0
C0
C0
C0
00
C0
C0
C0
C0
C0
C0
ENDCHAR

STARTCHAR section
ENCODING 167
SWIDTH 600 0
DWIDTH 8 0
BBX 7 12 1 -2
BITMAP
7C
CE
C0
78
7E
CE
F6
7C
1E
C6
EE
7C
ENDCHAR

STARTCHAR dieresis
ENCODING 168
SWIDTH 500 0
DWIDTH 7 0
BBX 5 2 1 8
BITMAP
D8
D8
ENDCHAR

STARTCHAR copyright
ENCODING 169
SWIDTH 740 0
DWIDTH 10 0
BBX 10 10 0 0
BITMAP
1E00
2100
4F80
9140
B040
B040
9140
4E80
3100
0E00
ENDCHAR

STARTCHAR ordfeminine
ENCODING 170
SWIDTH 400 0
DWIDTH 6 0
BBX 6 5 0 5
BITMAP
70
18
78
D8
7C
ENDCHAR

STARTCHAR guillemotleft
ENCODING 171
SWIDTH 400 0
DWIDTH 6 0
BBX 6 5 0 0
BITMAP
24
48
D8
48
24
ENDCHAR

STARTCHAR logicalnot
ENCODING 172
SWIDTH 600 0
DWIDTH 8 0
BBX 7 4 1 2
BITMAP
FE
02
02
02
ENDCHAR

STARTCHAR hyphen
ENCODING 173
SWIDTH 360 0
DWIDTH 5 0
BBX 3 2 1 2
BITMAP
E0
E0
ENDCHAR

STARTCHAR registered
ENCODING 174
SWIDTH 740 0
DWIDTH 10 0
BBX 10 10 0 0
BITMAP
1E00
2100
5C80
9240
9E40
9440
9640
5B80
2100
1E00
ENDCHAR

STARTCHAR macron
ENCODING 175
SWIDTH 460 0
DWIDTH 6 0
BBX 4 1 1 8
BITMAP
F0
ENDCHAR

STARTCHAR degree
ENCODING 176
SWIDTH 400 0
DWIDTH 6 0
BBX 4 4 1 6
BITMAP
60
90
90
60
ENDCHAR

STARTCHAR plusminus
ENCODING 177
SWIDTH 600 0
DWIDTH 8 0
BBX 7 9 1 0
BITMAP
10
10
10
FE
10
10
10
00
FE
ENDCHAR

STARTCHAR twosuperior
ENCODING 178
SWIDTH 396 0
DWIDTH 6 0
BBX 5 5 1 5
BITMAP
70
98
10
68
F8
ENDCHAR

STARTCHAR threesuperior
ENCODING 179
SWIDTH 396 0
DWIDTH 6 0
BBX 5 5 1 5
BITMAP
F0
90
70
98
70
ENDCHAR

STARTCHAR acute
ENCODING 180
SWIDTH 400 0
DWIDTH 6 0
BBX 4 2 1 8
BITMAP
70
E0
ENDCHAR

STARTCHAR mu
ENCODING 181
SWIDTH 660 0
DWIDTH 9 0
BBX 7 10 2 -3
BITMAP
CC
CC
CC
CC
CC
CC
F6
C4
C0
C0
ENDCHAR

STARTCHAR paragraph
ENCODING 182
SWIDTH 800 0
DWIDTH 11 0
BBX 8 13 1 -3
BITMAP
3F
7A
FA
FA
7A
7A
1A
0A
0A
0A
0A
0A
0A
ENDCHAR

STARTCHAR periodcentered
ENCODING 183
SWIDTH 340 0
DWIDTH 5 0
BBX 3 3 1 3
BITMAP
40
E0
40
ENDCHAR

STARTCHAR cedilla
ENCODING 184
SWIDTH 360 0
DWIDTH 5 0
BBX 3 4 1 -3
BITMAP
40
60
20
E0
ENDCHAR

STARTCHAR onesuperior
ENCODING 185
SWIDTH 396 0
DWIDTH 6 0
BBX 3 5 2 5
BITMAP
C0
40
40
40
E0
ENDCHAR

STARTCHAR ordmasculine
ENCODING 186
SWIDTH 400 0
DWIDTH 6 0
BBX 5 4 0 6
BITMAP
70
D8
D8
70
ENDCHAR

STARTCHAR guillemotright
ENCODING 187
SWIDTH 400 0
DWIDTH 6 0
BBX 6 5 0 0
BITMAP
90
48
6C
48
90
ENDCHAR

STARTCHAR onequarter
ENCODING 188
SWIDTH 990 0
DWIDTH 14 0
BBX 11 10 2 0
BITMAP
4100
C300
4200
4400
EC00
08C0
1140
3240
23E0
4040
ENDCHAR

STARTCHAR onehalf
ENCODING 189
SWIDTH 990 0
DWIDTH 14 0
BBX 11 10 2 0
BITMAP
4100
C300
4200
4400
EC00
09C0
1260
3040
21A0
43C0
ENDCHAR

STARTCHAR threequarters
ENCODING 190
SWIDTH 990 0
DWIDTH 14 0
BBX 11 10 2 0
BITMAP
6080
9180
2100
9200
6600
04C0
0940
1A40
13E0
2040
ENDCHAR

STARTCHAR questiondown
ENCODING 191
SWIDTH 660 0
DWIDTH 9 0
BBX 7 10 1 -3
BITMAP
08
1C
08
00
78
F8
C0
C6
7E
3C
ENDCHAR

STARTCHAR Agrave
ENCODING 192
SWIDTH 720 0
DWIDTH 10 0
BBX 10 13 0 0
BITMAP
1800
0C00
0000
0C00
0E00
1E00
1F00
3300
3300
3F80
6180
6180
F3C0
ENDCHAR

STARTCHAR Aacute
ENCODING 193
SWIDTH 720 0
DWIDTH 10 0
BBX 10 13 0 0
BITMAP
0600
0C00
0000
0C00
0E00
1E00
1F00
3300
3300
3F80
6180
6180
F3C0
ENDCHAR

STARTCHAR Acircumflex
ENCODING 194
SWIDTH 720 0
DWIDTH 10 0
BBX 10 13 0 0
BITMAP
0E00
1B00
0000
0C00
0E00
1E00
1F00
3300
3300
3F80
6180
6180
F3C0
ENDCHAR

STARTCHAR Atilde
ENCODING 195
SWIDTH 720 0
DWIDTH 10 0
BBX 10 13 0 0
BITMAP
1A00
2C00
0000
0C00
0E00
1E00
1F00
3300
3300
3F80
6180
6180
F3C0
ENDCHAR

STARTCHAR Adieresis
ENCODING 196
SWIDTH 720 0
DWIDTH 10 0
BBX 10 13 0 0
BITMAP
3300
3300
0000
0C00
0E00
1E00
1F00
3300
3300
3F80
6180
6180
F3C0
ENDCHAR

STARTCHAR Aring
ENCODING 197
SWIDTH 720 0
DWIDTH 10 0
BBX 10 13 0 0
BITMAP
0C00
1200
1200
0C00
0E00
1E00
1F00
3300
3300
3F80
6180
6180
F3C0
ENDCHAR

STARTCHAR AE
ENCODING 198
SWIDTH 1140 0
DWIDTH 16 0
BBX 16 10 0 0
BITMAP
1FFE
0CC7
0CC3
18C8
18F8
3FC8
30C0
60C3
60C7
F1FE
ENDCHAR

STARTCHAR Ccedilla
ENCODING 199
SWIDTH 740 0
DWIDTH 10 0
BBX 9 13 1 -3
BITMAP
1F00
7380
6180
C000
C000
C000
C000
6180
7380
1F00
0400
0200
0C00
ENDCHAR

STARTCHAR Egrave
ENCODING 200
SWIDTH 720 0
DWIDTH 10 0
BBX 9 13 1 0
BITMAP
1800
0C00
0000
FF00
6380
6180
6400
7C00
6400
6000
6180
6380
FF00
ENDCHAR

STARTCHAR Eacute
ENCODING 201
SWIDTH 720 0
DWIDTH 10 0
BBX 9 13 1 0
BITMAP
0C00
1800
0000
FF00
6380
6180
6400
7C00
6400
6000
6180
6380
FF00
ENDCHAR

STARTCHAR Ecircumflex
ENCODING 202
SWIDTH 720 0
DWIDTH 10 0
BBX 9 13 1 0
BITMAP
1C00
3600
0000
FF00
6380
6180
6400
7C00
6400
6000
6180
6380
FF00
ENDCHAR

STARTCHAR Edieresis
ENCODING 203
SWIDTH 720 0
DWIDTH 10 0
BBX 9 13 1 0
BITMAP
3300
3300
0000
FF00
6380
6180
6400
7C00
6400
6000
6180
6380
FF00
ENDCHAR

STARTCHAR Igrave
ENCODING 204
SWIDTH 400 0
DWIDTH 5 0
BBX 4 13 1 0
BITMAP
C0
60
00
F0
60
60
60
60
60
60
60
60
F0
ENDCHAR

STARTCHAR Iacute
ENCODING 205
SWIDTH 400 0
DWIDTH 5 0
BBX 4 13 1 0
BITMAP
30
60
00
F0
60
60
60
60
60
60
60
60
F0
ENDCHAR

STARTCHAR Icircumflex
ENCODING 206
SWIDTH 400 0
DWIDTH 5 0
BBX 5 13 0 0
BITMAP
70
D8
00
78
30
30
30
30
30
30
30
30
78
ENDCHAR

STARTCHAR Idieresis
ENCODING 207
SWIDTH 400 0
DWIDTH 5 0
BBX 6 13 0 0
BITMAP
CC
CC
00
78
30
30
30
30
30
30
30
30
78
ENDCHAR

STARTCHAR Gbreve
ENCODING 208
SWIDTH 780 0
DWIDTH 11 0
BBX 10 13 1 0
BITMAP
1100
0E00
0000
1F00
7380
6180
C000
C000
C3C0
C180
6180
7380
1E80
ENDCHAR

STARTCHAR Ntilde
ENCODING 209
SWIDTH 740 0
DWIDTH 11 0
BBX 10 13 1 0
BITMAP
1D00
2E00
0000
F1C0
7880
5880
4C80
4C80
4680
4680
4380
4380
E180
ENDCHAR

STARTCHAR Ograve
ENCODING 210
SWIDTH 800 0
DWIDTH 11 0
BBX 10 13 1 0
BITMAP
1800
0C00
0000
1E00
7380
6180
C0C0
C0C0
C0C0
C0C0
6180
7380
1E00
ENDCHAR

STARTCHAR Oacute
ENCODING 211
SWIDTH 800 0
DWIDTH 11 0
BBX 10 13 1 0
BITMAP
0600
0C00
0000
1E00
7380
6180
C0C0
C0C0
C0C0
C0C0
6180
7380
1E00
ENDCHAR

STARTCHAR Ocircumflex
ENCODING 212
SWIDTH 800 0
DWIDTH 11 0
BBX 10 13 1 0
BITMAP
1E00
3300
0000
1E00
7380
6180
C0C0
C0C0
C0C0
C0C0
6180
7380
1E00
ENDCHAR

STARTCHAR Otilde
ENCODING 213
SWIDTH 800 0
DWIDTH 11 0
BBX 10 13 1 0
BITMAP
1D00
2E00
0000
1E00
7380
6180
C0C0
C0C0
C0C0
C0C0
6180
7380
1E00
ENDCHAR

STARTCHAR Odieresis
ENCODING 214
SWIDTH 800 0
DWIDTH 11 0
BBX 10 13 1 0
BITMAP
3300
3300
0000
1E00
7380
6180
C0C0
C0C0
C0C0
C0C0
6180
7380
1E00
ENDCHAR

STARTCHAR multiply
ENCODING 215
SWIDTH 600 0
DWIDTH 8 0
BBX 6 6 1 2
BITMAP
C4
6C
38
38
6C
C4
ENDCHAR

STARTCHAR Oslash
ENCODING 216
SWIDTH 800 0
DWIDTH 11 0
BBX 10 10 1 0
BITMAP
1E40
7380
6180
C2C0
C4C0
C4C0
C8C0
7180
7380
9E00
ENDCHAR

STARTCHAR Ugrave
ENCODING 217
SWIDTH 740 0
DWIDTH 11 0
BBX 10 13 1 0
BITMAP
0C00
0600
0000
F1C0
6080
6080
6080
6080
6080
6080
6080
3100
1E00
ENDCHAR

STARTCHAR Uacute
ENCODING 218
SWIDTH 740 0
DWIDTH 11 0
BBX 10 13 1 0
BITMAP
0600
0C00
0000
F1C0
6080
6080
6080
6080
6080
6080
6080
3100
1E00
ENDCHAR

STARTCHAR Ucircumflex
ENCODING 219
SWIDTH 740 0
DWIDTH 11 0
BBX 10 13 1 0
BITMAP
0E00
1B00
0000
F1C0
6080
6080
6080
6080
6080
6080
6080
3100
1E00
ENDCHAR

STARTCHAR Udieresis
ENCODING 220
SWIDTH 740 0
DWIDTH 11 0
BBX 10 13 1 0
BITMAP
3300
3300
0000
F1C0
6080
6080
6080
6080
6080
6080
6080
3100
1E00
ENDCHAR

STARTCHAR Idotaccent
ENCODING 221
SWIDTH 400 0
DWIDTH 5 0
BBX 4 13 1 0
BITMAP
60
60
00
F0
60
60
60
60
60
60
60
60
F0
ENDCHAR

STARTCHAR Scedilla
ENCODING 222
SWIDTH 660 0
DWIDTH 8 0
BBX 7 13 1 -3
BITMAP
7A
CE
C6
E0
78
3C
0E
C6
E6
BC
10
08
30
ENDCHAR

STARTCHAR germandbls
ENCODING 223
SWIDTH 660 0
DWIDTH 9 0
BBX 8 10 1 0
BITMAP
3C
66
6E
F8
6C
6E
67
63
7B
EE
ENDCHAR

STARTCHAR agrave
ENCODING 224
SWIDTH 580 0
DWIDTH 8 0
BBX 7 10 1 0
BITMAP
60
30
00
78
CC
0C
7C
EC
CC
76
ENDCHAR

STARTCHAR aacute
ENCODING 225
SWIDTH 580 0
DWIDTH 8 0
BBX 7 10 1 0
BITMAP
18
30
00
78
CC
0C
7C
EC
CC
76
ENDCHAR

STARTCHAR acircumflex
ENCODING 226
SWIDTH 580 0
DWIDTH 8 0
BBX 7 10 1 0
BITMAP
38
6C
00
78
CC
0C
7C
EC
CC
76
ENDCHAR

STARTCHAR atilde
ENCODING 227
SWIDTH 580 0
DWIDTH 8 0
BBX 7 10 1 0
BITMAP
34
58
00
78
CC
0C
7C
EC
CC
76
ENDCHAR

STARTCHAR adieresis
ENCODING 228
SWIDTH 580 0
DWIDTH 8 0
BBX 7 10 1 0
BITMAP
6C
6C
00
78
CC
0C
7C
EC
CC
76
ENDCHAR

STARTCHAR aring
ENCODING 229
SWIDTH 580 0
DWIDTH 8 0
BBX 7 11 1 0
BITMAP
30
48
48
30
78
CC
0C
7C
EC
CC
76
ENDCHAR

STARTCHAR ae
ENCODING 230
SWIDTH 880 0
DWIDTH 12 0
BBX 11 7 1 0
BITMAP
7FC0
C660
07E0
7E00
E620
CE60
7BC0
ENDCHAR

STARTCHAR ccedilla
ENCODING 231
SWIDTH 580 0
DWIDTH 8 0
BBX 7 10 1 -3
BITMAP
3C
6E
C6
C0
C2
66
3C
10
08
30
ENDCHAR

STARTCHAR egrave
ENCODING 232
SWIDTH 580 0
DWIDTH 8 0
BBX 7 10 1 0
BITMAP
30
18
00
3C
46
FE
C0
C2
66
3C
ENDCHAR

STARTCHAR eacute
ENCODING 233
SWIDTH 580 0
DWIDTH 8 0
BBX 7 10 1 0
BITMAP
0C
18
00
3C
46
FE
C0
C2
66
3C
ENDCHAR

STARTCHAR ecircumflex
ENCODING 234
SWIDTH 580 0
DWIDTH 8 0
BBX 7 10 1 0
BITMAP
38
6C
00
3C
46
FE
C0
C2
66
3C
ENDCHAR

STARTCHAR edieresis
ENCODING 235
SWIDTH 580 0
DWIDTH 8 0
BBX 7 10 1 0
BITMAP
66
66
00
3C
46
FE
C0
C2
66
3C
ENDCHAR

STARTCHAR igrave
ENCODING 236
SWIDTH 360 0
DWIDTH 5 0
BBX 4 10 1 0
BITMAP
C0
60
00
20
E0
60
60
60
60
F0
ENDCHAR

STARTCHAR iacute
ENCODING 237
SWIDTH 360 0
DWIDTH 5 0
BBX 4 10 1 0
BITMAP
30
60
00
20
E0
60
60
60
60
F0
ENDCHAR

STARTCHAR icircumflex
ENCODING 238
SWIDTH 360 0
DWIDTH 5 0
BBX 5 10 0 0
BITMAP
70
D8
00
10
70
30
30
30
30
78
ENDCHAR

STARTCHAR idieresis
ENCODING 239
SWIDTH 360 0
DWIDTH 5 0
BBX 6 10 0 0
BITMAP
CC
CC
00
10
70
30
30
30
30
78
ENDCHAR

STARTCHAR gbreve
ENCODING 240
SWIDTH 580 0
DWIDTH 8 0
BBX 7 13 1 -3
BITMAP
44
38
00
7A
EC
CC
DC
78
C0
F8
7C
C6
7C
ENDCHAR

STARTCHAR ntilde
ENCODING 241
SWIDTH 680 0
DWIDTH 10 0
BBX 9 10 1 0
BITMAP
0600
0C00
0000
2E00
F700
6300
6300
6300
6300
F380
ENDCHAR

STARTCHAR ograve
ENCODING 242
SWIDTH 620 0
DWIDTH 9 0
BBX 8 10 1 0
BITMAP
30
18
00
3C
66
C3
C3
C3
66
3C
ENDCHAR

STARTCHAR oacute
ENCODING 243
SWIDTH 620 0
DWIDTH 9 0
BBX 8 10 1 0
BITMAP
0C
18
00
3C
66
C3
C3
C3
66
3C
ENDCHAR

STARTCHAR ocircumflex
ENCODING 244
SWIDTH 620 0
DWIDTH 9 0
BBX 8 10 1 0
BITMAP
1C
36
00
3C
66
C3
C3
C3
66
3C
ENDCHAR

STARTCHAR otilde
ENCODING 245
SWIDTH 620 0
DWIDTH 9 0
BBX 8 10 1 0
BITMAP
34
58
00
3C
66
C3
C3
C3
66
3C
ENDCHAR

STARTCHAR odieresis
ENCODING 246
SWIDTH 620 0
DWIDTH 9 0
BBX 8 10 1 0
BITMAP
66
66
00
3C
66
C3
C3
C3
66
3C
ENDCHAR

STARTCHAR divide
ENCODING 247
SWIDTH 600 0
DWIDTH 8 0
BBX 6 7 1 1
BITMAP
30
30
00
FC
00
30
30
ENDCHAR

STARTCHAR oslash
ENCODING 248
SWIDTH 620 0
DWIDTH 9 0
BBX 8 7 1 0
BITMAP
3D
66
CF
D3
D3
66
BC
ENDCHAR

STARTCHAR ugrave
ENCODING 249
SWIDTH 660 0
DWIDTH 10 0
BBX 9 10 1 0
BITMAP
1800
0C00
0000
EF00
6300
6300
6300
6300
6700
3B80
ENDCHAR

STARTCHAR uacute
ENCODING 250
SWIDTH 660 0
DWIDTH 10 0
BBX 9 10 1 0
BITMAP
0C00
1800
0000
EF00
6300
6300
6300
6300
6700
3B80
ENDCHAR

STARTCHAR ucircumflex
ENCODING 251
SWIDTH 660 0
DWIDTH 10 0
BBX 9 10 1 0
BITMAP
1C00
3600
0000
EF00
6300
6300
6300
6300
6700
3B80
ENDCHAR

STARTCHAR udieresis
ENCODING 252
SWIDTH 660 0
DWIDTH 10 0
BBX 9 10 1 0
BITMAP
6600
6600
0000
EF00
6300
6300
6300
6300
6700
3B80
ENDCHAR

STARTCHAR dotlessi
ENCODING 253
SWIDTH 360 0
DWIDTH 5 0
BBX 4 7 1 0
BITMAP
20
E0
60
60
60
60
F0
ENDCHAR

STARTCHAR scedilla
ENCODING 254
SWIDTH 520 0
DWIDTH 7 0
BBX 6 10 1 -3
BITMAP
78
CC
E0
78
1C
CC
78
10
08
30
ENDCHAR

STARTCHAR ydieresis
ENCODING 255
SWIDTH 620 0
DWIDTH 9 0
BBX 9 13 1 -3
BITMAP
6600
6600
0000
F780
6300
6600
3600
3400
1C00
1800
5800
F000
6000
ENDCHAR
ENDFONT
